<svg xmlns="http://www.w3.org/2000/svg" xmlns:xlink="http://www.w3.org/1999/xlink">
  <symbol id="logo" viewBox="0 0 196.57 30">
    <path fill="#f7a62b" d="M0 .06h6.04v14.97H0z"/>
    <path d="M22.6.06h8.76l-22.13 15L31.3 30h-8.58L0 15ZM33.25 5.8V0h19.29a10.43 10.43 0 0 1 8 3.08 9.42 9.42 0 0 1 1.78 2.3 12 12 0 0 1 .83 2.25 9.25 9.25 0 0 1 .29 2.19v.83a7.79 7.79 0 0 1-.71 3.26 10.26 10.26 0 0 1-2.2 3.09 9.07 9.07 0 0 1-1.71 1.48 9.88 9.88 0 0 1-1.6.77C59.76 22 61 25.5 61 29.94h-6v-.41a9 9 0 0 0-4-7.81 9.87 9.87 0 0 0-5.92-1.6H33.25v-5.8H52.9a4.36 4.36 0 0 0 4.38-3.2c.06-.23.06-.41.12-.59a1.41 1.41 0 0 0 .06-.47A4.49 4.49 0 0 0 56 6.86a4.44 4.44 0 0 0-2.73-1c0-.06-.29-.06-.88-.06ZM81.66 30A14.48 14.48 0 0 1 75 28.52 15.93 15.93 0 0 1 69.59 24a6.87 6.87 0 0 1-1.31-2 5.9 5.9 0 0 1-.59-1.18c-.18-.47-.35-1-.53-1.54a20.33 20.33 0 0 1-.65-5.68V.06h6v14.2a10.51 10.51 0 0 0 1.6 6A9.32 9.32 0 0 0 79 23.79a7.27 7.27 0 0 0 1.37.35 8.58 8.58 0 0 0 1.18.12 10.69 10.69 0 0 0 1.24-.12 6.19 6.19 0 0 0 1.36-.35A9.28 9.28 0 0 0 89 20.24a10.56 10.56 0 0 0 1.6-6V.06h6.16v13.55a20.5 20.5 0 0 1-.66 5.68 13.59 13.59 0 0 1-.53 1.54A11.31 11.31 0 0 1 95 22a10.39 10.39 0 0 0-.53.95 10.84 10.84 0 0 1-.77 1.12 16.21 16.21 0 0 1-5.45 4.5A15.24 15.24 0 0 1 81.66 30ZM109.35.06h20.18v6.15h-20.36a2.78 2.78 0 0 0-3 2.37V9a2.67 2.67 0 0 0 1.54 2.31 2.75 2.75 0 0 0 1 .18H119c2.67 0 4.44.3 5.39.83a8.93 8.93 0 0 1 4.85 4.79 12.07 12.07 0 0 1 .59 1.95A10.19 10.19 0 0 1 130 21a8.74 8.74 0 0 1-1 4.14 10.25 10.25 0 0 1-3.19 3.43 5 5 0 0 1-1.36.71 10.61 10.61 0 0 1-1.54.47 9.11 9.11 0 0 1-1.6.24c-.65.06-1.48.06-2.42.06H99.82v-6.2h20.48a3.18 3.18 0 0 0 3.31-2.55l.06-.53a2.48 2.48 0 0 0-.42-1.6 3.72 3.72 0 0 0-1.36-1.17 3.12 3.12 0 0 0-1.59-.36h-11.48a9 9 0 0 1-7.52-4 8.5 8.5 0 0 1-1.3-4.41V8.4c0-3.07 1.48-5.5 4.5-7.28a9.51 9.51 0 0 1 4.85-1.06ZM149.47 0h13.84v30h-6V5.86h-6.69c-3 0-4.67.12-5 .35a7.73 7.73 0 0 0-2.48 1.13 9.09 9.09 0 0 0-2 1.95 11 11 0 0 0-1.53 2.84 9.4 9.4 0 0 0-.48 2.84 9.31 9.31 0 0 0 .65 3.37 9.94 9.94 0 0 0 2.07 3.08 11.59 11.59 0 0 0 1.66 1.42 3.5 3.5 0 0 0 1.48.65 10.46 10.46 0 0 0 4.5.65h1.83v5.8h-2.66a17.62 17.62 0 0 1-5.15-.71 12.5 12.5 0 0 1-4.28-2.23 13.48 13.48 0 0 1-2.31-2.13A12.58 12.58 0 0 1 135.5 23a17.2 17.2 0 0 1-1.71-3.73 11.75 11.75 0 0 1-.59-3.85v-.88a14.08 14.08 0 0 1 1-5.21 14.3 14.3 0 0 1 3.08-4.73 15.85 15.85 0 0 1 2.19-2 10.07 10.07 0 0 1 1.83-1 13.39 13.39 0 0 1 3.08-1.19 26.51 26.51 0 0 1 5.09-.41ZM166.39 5.8V0h19.29a10.44 10.44 0 0 1 8 3.08 9.11 9.11 0 0 1 1.77 2.3 11.38 11.38 0 0 1 .83 2.25 8.77 8.77 0 0 1 .3 2.19v.83a8 8 0 0 1-.71 3.26 10.63 10.63 0 0 1-2.2 3.09 8.8 8.8 0 0 1-1.67 1.52 7.49 7.49 0 0 1-1.6.77c2.55 2.66 3.79 6.21 3.79 10.65h-6v-.41a9 9 0 0 0-4-7.81 9.85 9.85 0 0 0-5.92-1.6h-11.88v-5.8H186a4.35 4.35 0 0 0 4.37-3.2c.06-.23.06-.41.12-.59a1.41 1.41 0 0 0 .06-.47 4.2 4.2 0 0 0-4.2-4.2c0-.06-.3-.06-.89-.06Z" fill="#fff"/>
    <path d="M151.24 18.22h-3a3 3 0 0 1-3-3 3 3 0 0 1 3-3h3Z" fill="#f7a62b"/>
  </symbol>
</svg>
