<svg xmlns="http://www.w3.org/2000/svg" xmlns:xlink="http://www.w3.org/1999/xlink">
  <symbol id="logo-icon" viewBox="0 0 30 26">
    <g fill="currentColor">
      <path d="M30 26 19.3 7.5l-3 5.4L23.9 26H30z"/>
      <path d="M18.3 20.6H3.1L0 26h21.4l-3.1-5.4z"/>
      <path d="m10.5 18.5 7.6-13.1L15 0 4.3 18.5h6.2z"/>
    </g>
  </symbol>
  <symbol id="github-icon" viewBox="0 0 22 22">
    <path fill="currentColor" d="M11 0a11.1 11.1 0 0 0-3.47 21.61c.54.11.74-.24.74-.53v-2.06c-3.07.66-3.7-1.32-3.7-1.32a2.87 2.87 0 0 0-1.22-1.61c-1-.68.07-.68.07-.68a2.29 2.29 0 0 1 1.68 1.13 2.33 2.33 0 0 0 3.21.92A2.34 2.34 0 0 1 9 16c-2.44-.26-5-1.22-5-5.48a4.34 4.34 0 0 1 1.13-3 4.05 4.05 0 0 1 .11-2.94s.93-.29 3 1.14A10.6 10.6 0 0 1 11 5.36a10.48 10.48 0 0 1 2.75.37c2.1-1.43 3-1.14 3-1.14a4.05 4.05 0 0 1 .11 2.94 4.25 4.25 0 0 1 1.13 3c0 4.26-2.57 5.2-5 5.48a2.62 2.62 0 0 1 .75 1.99v3a.55.55 0 0 0 .75.53A11.1 11.1 0 0 0 11 0Z" />
  </symbol>
  <symbol id="telegram-icon" viewBox="0 0 22 22">
    <path fill="currentColor" d="M11 0a11 11 0 1 0 11 11A11 11 0 0 0 11 0Zm5.09 7.47c-.16 1.74-.88 6-1.24 7.91-.16.82-.46 1.1-.75 1.12-.65.06-1.13-.42-1.74-.82-1-.63-1.52-1-2.46-1.65-1.09-.71-.38-1.11.24-1.75.16-.16 3-2.73 3-3a.23.23 0 0 0-.05-.19.27.27 0 0 0-.23 0c-.1 0-1.64 1.05-4.64 3.07a2.07 2.07 0 0 1-1.19.44 8.21 8.21 0 0 1-1.71-.4c-.69-.22-1.24-.34-1.19-.73 0-.2.3-.4.81-.61 3.21-1.39 5.34-2.32 6.41-2.77 3-1.27 3.7-1.49 4.11-1.5a.75.75 0 0 1 .43.13.43.43 0 0 1 .15.3 1.46 1.46 0 0 1 .05.45Z"/>
  </symbol>
  <symbol id="email-icon" viewBox="0 0 22 22">
    <path fill="currentColor" d="M11 0a11 11 0 1 0 11 11A11 11 0 0 0 11 0Zm6.4 6.4L11 11.6 4.6 6.4Zm0 9.2H4.6V7.8L11 13l6.4-5.2Z"/>
  </symbol>
</svg>
